<svg width="858" height="222" viewBox="0 0 858 222" fill="none" xmlns="http://www.w3.org/2000/svg">
<path d="M361.297 57.3891V80.4235H330.024V175.419H301.273V80.4235H270V57.3891H361.297Z" fill="#17223B"/>
<path d="M370.01 128.342C370.01 118.702 371.803 110.239 375.39 102.953C379.089 95.6676 384.077 90.0632 390.354 86.14C396.631 82.2169 403.636 80.2553 411.371 80.2553C417.984 80.2553 423.756 81.6004 428.688 84.2905C433.732 86.9807 437.599 90.5115 440.29 94.883V81.6004H469.041V175.419H440.29V162.137C437.487 166.508 433.564 170.039 428.52 172.729C423.588 175.419 417.816 176.764 411.202 176.764C403.58 176.764 396.631 174.803 390.354 170.88C384.077 166.844 379.089 161.184 375.39 153.898C371.803 146.5 370.01 137.981 370.01 128.342ZM440.29 128.51C440.29 121.336 438.272 115.676 434.237 111.528C430.314 107.381 425.494 105.307 419.777 105.307C414.061 105.307 409.185 107.381 405.15 111.528C401.226 115.563 399.265 121.168 399.265 128.342C399.265 135.515 401.226 141.232 405.15 145.491C409.185 149.639 414.061 151.712 419.777 151.712C425.494 151.712 430.314 149.639 434.237 145.491C438.272 141.344 440.29 135.684 440.29 128.51Z" fill="#17223B"/>
<path d="M518.592 51V175.419H489.841V51H518.592Z" fill="#17223B"/>
<path d="M577.593 176.764C569.411 176.764 562.125 175.363 555.736 172.561C549.347 169.759 544.303 165.948 540.604 161.128C536.905 156.196 534.831 150.704 534.383 144.651H562.798C563.134 147.901 564.647 150.535 567.337 152.553C570.027 154.571 573.334 155.579 577.257 155.579C580.844 155.579 583.59 154.907 585.496 153.562C587.513 152.105 588.522 150.255 588.522 148.013C588.522 145.323 587.121 143.362 584.319 142.129C581.517 140.784 576.977 139.326 570.7 137.757C563.975 136.188 558.37 134.563 553.887 132.881C549.403 131.088 545.536 128.342 542.285 124.643C539.035 120.832 537.409 115.732 537.409 109.343C537.409 103.962 538.867 99.0864 541.781 94.7149C544.807 90.2313 549.179 86.7005 554.895 84.1224C560.724 81.5444 567.618 80.2553 575.576 80.2553C587.345 80.2553 596.593 83.1697 603.318 88.9983C610.155 94.827 614.079 102.561 615.087 112.201H588.522C588.074 108.95 586.617 106.372 584.151 104.467C581.797 102.561 578.658 101.608 574.735 101.608C571.373 101.608 568.794 102.281 567.001 103.626C565.208 104.859 564.311 106.596 564.311 108.838C564.311 111.528 565.712 113.546 568.514 114.891C571.429 116.236 575.912 117.581 581.965 118.926C588.914 120.72 594.575 122.513 598.946 124.306C603.318 125.988 607.129 128.79 610.38 132.713C613.742 136.524 615.48 141.68 615.592 148.182C615.592 153.674 614.023 158.606 610.884 162.977C607.858 167.237 603.43 170.599 597.601 173.065C591.885 175.531 585.216 176.764 577.593 176.764Z" fill="#17223B"/>
<path d="M768.987 51V175.419H740.236V51H768.987Z" fill="#17223B"/>
<path d="M816.724 151.712H857.412V175.419H784.61V152.553L823.617 105.307H784.946V81.6004H856.571V104.467L816.724 151.712Z" fill="#17223B"/>
<circle cx="673.638" cy="106.638" r="32.6384" fill="#8B7241"/>
<path d="M730.337 177C730.337 169.149 724.366 161.62 713.739 156.068C703.112 150.517 688.698 147.398 673.668 147.398C658.639 147.398 644.225 150.517 633.598 156.068C622.97 161.62 617 169.149 617 177L673.668 177H730.337Z" fill="#17223B"/>
<path fill-rule="evenodd" clip-rule="evenodd" d="M110.225 34.8376L101.208 40.8229C100.58 41.2394 99.7332 41.0696 99.3157 40.4436C99.0956 40.1136 99.0306 39.7042 99.1377 39.3224L102.057 28.9176C102.206 28.3892 102.021 27.8236 101.59 27.4831L93.0976 20.7774C92.5066 20.3107 92.4067 19.4545 92.8745 18.8649C93.1211 18.5541 93.4913 18.3659 93.8884 18.3496L104.71 17.9044C105.259 17.8818 105.742 17.5322 105.933 17.0178L109.701 6.88811C109.964 6.18319 110.749 5.82382 111.456 6.08544C111.828 6.22337 112.122 6.51645 112.26 6.88811L116.029 17.0178C116.22 17.5322 116.702 17.8818 117.252 17.9044L128.073 18.3496C128.827 18.3806 129.412 19.0147 129.381 19.766C129.364 20.1621 129.176 20.5314 128.864 20.7774L120.372 27.4831C119.94 27.8236 119.756 28.3892 119.905 28.9176L122.824 39.3224C123.027 40.0465 122.604 40.7978 121.878 41.0005C121.495 41.1073 121.085 41.0425 120.754 40.8229L111.737 34.8376C111.279 34.5336 110.683 34.5336 110.225 34.8376Z" fill="#8B7241"/>
<path fill-rule="evenodd" clip-rule="evenodd" d="M158.454 49.9807L147.633 49.5355C146.88 49.5045 146.294 48.8704 146.325 48.1191C146.342 47.723 146.53 47.3537 146.842 47.1077L155.334 40.402C155.766 40.0614 155.95 39.4959 155.802 38.9674L152.882 28.5626C152.679 27.8385 153.103 27.0873 153.828 26.8846C154.211 26.7777 154.621 26.8425 154.952 27.0621L163.969 33.0475C164.427 33.3515 165.023 33.3515 165.481 33.0475L174.498 27.0621C175.126 26.6456 175.973 26.8154 176.391 27.4414C176.611 27.7715 176.676 28.1809 176.569 28.5626L173.649 38.9674C173.501 39.4959 173.685 40.0614 174.116 40.402L182.609 47.1077C183.2 47.5743 183.299 48.4305 182.832 49.0201C182.585 49.331 182.215 49.5191 181.818 49.5355L170.996 49.9807C170.447 50.0033 169.965 50.3528 169.773 50.8672L166.005 60.9969C165.743 61.7019 164.957 62.0612 164.25 61.7996C163.878 61.6617 163.584 61.3686 163.446 60.9969L159.677 50.8672C159.486 50.3528 159.004 50.0033 158.454 49.9807Z" fill="#8B7241"/>
<path fill-rule="evenodd" clip-rule="evenodd" d="M188.55 90.5124L180.058 83.8068C179.467 83.3401 179.367 82.4839 179.835 81.8943C180.081 81.5834 180.451 81.3953 180.848 81.3789L191.67 80.9338C192.22 80.9111 192.702 80.5616 192.893 80.0472L196.662 69.9175C196.924 69.2126 197.709 68.8532 198.416 69.1148C198.788 69.2527 199.082 69.5458 199.22 69.9175L202.989 80.0472C203.18 80.5616 203.663 80.9111 204.212 80.9338L215.034 81.3789C215.787 81.4099 216.372 82.0441 216.341 82.7953C216.325 83.1914 216.136 83.5607 215.824 83.8068L207.332 90.5124C206.901 90.853 206.716 91.4186 206.865 91.947L209.784 102.352C209.987 103.076 209.564 103.827 208.838 104.03C208.455 104.137 208.045 104.072 207.714 103.852L198.697 97.8669C198.239 97.5629 197.643 97.5629 197.185 97.8669L188.168 103.852C187.54 104.269 186.693 104.099 186.276 103.473C186.056 103.143 185.991 102.734 186.098 102.352L189.017 91.947C189.166 91.4186 188.981 90.853 188.55 90.5124Z" fill="#8B7241"/>
<path fill-rule="evenodd" clip-rule="evenodd" d="M32.9445 91.947L35.8641 102.352C36.0672 103.076 35.6436 103.827 34.9178 104.03C34.5351 104.137 34.1247 104.072 33.7939 103.852L24.7768 97.8669C24.3189 97.563 23.7228 97.563 23.2649 97.8669L14.2478 103.852C13.6203 104.269 12.7731 104.099 12.3556 103.473C12.1355 103.143 12.0705 102.734 12.1776 102.352L15.0972 91.947C15.2455 91.4186 15.0613 90.853 14.63 90.5125L6.13755 83.8068C5.54656 83.3401 5.44667 82.4839 5.91443 81.8943C6.16106 81.5835 6.53124 81.3953 6.92828 81.379L17.7498 80.9338C18.2993 80.9112 18.7816 80.5616 18.973 80.0472L22.7414 69.9175C23.0037 69.2126 23.7891 68.8532 24.4957 69.1148C24.8682 69.2528 25.162 69.5458 25.3003 69.9175L29.0687 80.0472C29.2601 80.5616 29.7423 80.9112 30.2919 80.9338L41.1134 81.379C41.8665 81.4099 42.4518 82.0441 42.4207 82.7953C42.4044 83.1914 42.2157 83.5607 41.9041 83.8068L33.4117 90.5125C32.9804 90.853 32.7962 91.4186 32.9445 91.947Z" fill="#8B7241"/>
<path fill-rule="evenodd" clip-rule="evenodd" d="M62.2846 50.8672L58.5162 60.9969C58.2539 61.7018 57.4685 62.0612 56.7619 61.7996C56.3894 61.6616 56.0956 61.3686 55.9573 60.9969L52.1889 50.8672C51.9975 50.3528 51.5153 50.0032 50.9657 49.9806L40.1442 49.5354C39.3911 49.5045 38.8058 48.8703 38.8369 48.1191C38.8532 47.723 39.0419 47.3537 39.3535 47.1076L47.8459 40.4019C48.2772 40.0614 48.4614 39.4958 48.3131 38.9674L45.3935 28.5626C45.1904 27.8385 45.614 27.0872 46.3398 26.8845C46.7225 26.7777 47.1329 26.8425 47.4637 27.0621L56.4808 33.0475C56.9387 33.3514 57.5348 33.3514 57.9927 33.0475L67.0098 27.0621C67.6373 26.6456 68.4845 26.8154 68.902 27.4414C69.1221 27.7715 69.1871 28.1808 69.08 28.5626L66.1604 38.9674C66.0121 39.4958 66.1963 40.0614 66.6276 40.402L75.1201 47.1076C75.711 47.5743 75.8109 48.4305 75.3432 49.0201C75.0965 49.3309 74.7264 49.5191 74.3293 49.5354L63.5078 49.9806C62.9583 50.0032 62.476 50.3528 62.2846 50.8672Z" fill="#8B7241"/>
<path d="M85.9581 122.334C84.6253 121.607 83 122.572 83 124.09V135.533C83 136.265 83.3996 136.938 84.0419 137.289L110.042 151.477C110.639 151.803 111.361 151.803 111.958 151.477L137.958 137.289C138.6 136.938 139 136.265 139 135.533V124.09C139 122.572 137.375 121.607 136.042 122.334L111.958 135.477C111.361 135.803 110.639 135.803 110.042 135.477L85.9581 122.334ZM111.958 80.5224C111.361 80.1968 110.639 80.1968 110.042 80.5224L70.219 102.244C68.8292 103.002 68.8292 104.998 70.2189 105.756L110.042 127.478C110.639 127.803 111.361 127.803 111.958 127.477L144.042 109.974C145.375 109.247 147 110.211 147 111.729V134C147 135.105 147.895 136 149 136H153C154.105 136 155 135.105 155 134V105.187C155 104.455 154.6 103.782 153.958 103.431L111.958 80.5224Z" fill="#DE3C4B"/>
<path fill-rule="evenodd" clip-rule="evenodd" d="M24.5499 131.472C30.853 129.424 37.6228 132.873 39.6708 139.176C44.5651 154.24 54.1026 167.367 66.9161 176.676C79.7297 185.986 95.1616 191 111 191C126.838 191 142.27 185.986 155.084 176.676C167.898 167.367 177.435 154.24 182.329 139.176C184.377 132.873 191.147 129.424 197.45 131.472C203.753 133.52 207.203 140.29 205.155 146.593C198.694 166.476 186.105 183.804 169.191 196.093C152.277 208.381 131.907 215 111 215C90.0933 215 69.7232 208.381 52.8093 196.093C35.8954 183.804 23.306 166.476 16.8454 146.593C14.7975 140.29 18.2469 133.52 24.5499 131.472Z" fill="#17223B"/>
</svg>
